<mxfile host="app.diagrams.net" agent="Mozilla/5.0 (X11; Linux x86_64; rv:132.0) Gecko/20100101 Firefox/132.0" version="24.8.3">
  <diagram id="C5RBs43oDa-KdzZeNtuy" name="Page-1">
    <mxGraphModel dx="1434" dy="1928" grid="1" gridSize="10" guides="1" tooltips="1" connect="1" arrows="1" fold="1" page="1" pageScale="1" pageWidth="827" pageHeight="1169" math="0" shadow="0">
      <root>
        <mxCell id="WIyWlLk6GJQsqaUBKTNV-0" />
        <mxCell id="WIyWlLk6GJQsqaUBKTNV-1" parent="WIyWlLk6GJQsqaUBKTNV-0" />
        <mxCell id="ywIWyBjBBA_NJopMtTMj-130" value="" style="html=1;overflow=block;blockSpacing=1;whiteSpace=wrap;fontSize=13;spacing=9;strokeColor=#10739e;strokeOpacity=100;fillOpacity=100;rounded=1;absoluteArcSize=1;arcSize=9;fillColor=#b1ddf0;strokeWidth=2.3;lucidId=J80nYq8lnvE4;" vertex="1" parent="WIyWlLk6GJQsqaUBKTNV-1">
          <mxGeometry x="1920" y="-353.5" width="536" height="120" as="geometry" />
        </mxCell>
        <mxCell id="WIyWlLk6GJQsqaUBKTNV-2" value="" style="rounded=0;html=1;jettySize=auto;orthogonalLoop=1;fontSize=11;endArrow=block;endFill=0;endSize=8;strokeWidth=1;shadow=0;labelBackgroundColor=none;edgeStyle=orthogonalEdgeStyle;" parent="WIyWlLk6GJQsqaUBKTNV-1" source="WIyWlLk6GJQsqaUBKTNV-3" target="WIyWlLk6GJQsqaUBKTNV-6" edge="1">
          <mxGeometry relative="1" as="geometry" />
        </mxCell>
        <mxCell id="WIyWlLk6GJQsqaUBKTNV-3" value="Lamp doesn&#39;t work" style="rounded=1;whiteSpace=wrap;html=1;fontSize=12;glass=0;strokeWidth=1;shadow=0;" parent="WIyWlLk6GJQsqaUBKTNV-1" vertex="1">
          <mxGeometry x="160" y="80" width="120" height="40" as="geometry" />
        </mxCell>
        <mxCell id="WIyWlLk6GJQsqaUBKTNV-4" value="Yes" style="rounded=0;html=1;jettySize=auto;orthogonalLoop=1;fontSize=11;endArrow=block;endFill=0;endSize=8;strokeWidth=1;shadow=0;labelBackgroundColor=none;edgeStyle=orthogonalEdgeStyle;" parent="WIyWlLk6GJQsqaUBKTNV-1" source="WIyWlLk6GJQsqaUBKTNV-6" target="WIyWlLk6GJQsqaUBKTNV-10" edge="1">
          <mxGeometry y="20" relative="1" as="geometry">
            <mxPoint as="offset" />
          </mxGeometry>
        </mxCell>
        <mxCell id="WIyWlLk6GJQsqaUBKTNV-5" value="No" style="edgeStyle=orthogonalEdgeStyle;rounded=0;html=1;jettySize=auto;orthogonalLoop=1;fontSize=11;endArrow=block;endFill=0;endSize=8;strokeWidth=1;shadow=0;labelBackgroundColor=none;" parent="WIyWlLk6GJQsqaUBKTNV-1" source="WIyWlLk6GJQsqaUBKTNV-6" target="WIyWlLk6GJQsqaUBKTNV-7" edge="1">
          <mxGeometry y="10" relative="1" as="geometry">
            <mxPoint as="offset" />
          </mxGeometry>
        </mxCell>
        <mxCell id="WIyWlLk6GJQsqaUBKTNV-6" value="Lamp&lt;br&gt;plugged in?" style="rhombus;whiteSpace=wrap;html=1;shadow=0;fontFamily=Helvetica;fontSize=12;align=center;strokeWidth=1;spacing=6;spacingTop=-4;" parent="WIyWlLk6GJQsqaUBKTNV-1" vertex="1">
          <mxGeometry x="170" y="170" width="100" height="80" as="geometry" />
        </mxCell>
        <mxCell id="WIyWlLk6GJQsqaUBKTNV-7" value="Plug in lamp" style="rounded=1;whiteSpace=wrap;html=1;fontSize=12;glass=0;strokeWidth=1;shadow=0;" parent="WIyWlLk6GJQsqaUBKTNV-1" vertex="1">
          <mxGeometry x="320" y="190" width="120" height="40" as="geometry" />
        </mxCell>
        <mxCell id="WIyWlLk6GJQsqaUBKTNV-8" value="No" style="rounded=0;html=1;jettySize=auto;orthogonalLoop=1;fontSize=11;endArrow=block;endFill=0;endSize=8;strokeWidth=1;shadow=0;labelBackgroundColor=none;edgeStyle=orthogonalEdgeStyle;" parent="WIyWlLk6GJQsqaUBKTNV-1" source="WIyWlLk6GJQsqaUBKTNV-10" target="WIyWlLk6GJQsqaUBKTNV-11" edge="1">
          <mxGeometry x="0.3333" y="20" relative="1" as="geometry">
            <mxPoint as="offset" />
          </mxGeometry>
        </mxCell>
        <mxCell id="WIyWlLk6GJQsqaUBKTNV-9" value="Yes" style="edgeStyle=orthogonalEdgeStyle;rounded=0;html=1;jettySize=auto;orthogonalLoop=1;fontSize=11;endArrow=block;endFill=0;endSize=8;strokeWidth=1;shadow=0;labelBackgroundColor=none;" parent="WIyWlLk6GJQsqaUBKTNV-1" source="WIyWlLk6GJQsqaUBKTNV-10" target="WIyWlLk6GJQsqaUBKTNV-12" edge="1">
          <mxGeometry y="10" relative="1" as="geometry">
            <mxPoint as="offset" />
          </mxGeometry>
        </mxCell>
        <mxCell id="WIyWlLk6GJQsqaUBKTNV-10" value="Bulb&lt;br&gt;burned out?" style="rhombus;whiteSpace=wrap;html=1;shadow=0;fontFamily=Helvetica;fontSize=12;align=center;strokeWidth=1;spacing=6;spacingTop=-4;" parent="WIyWlLk6GJQsqaUBKTNV-1" vertex="1">
          <mxGeometry x="170" y="290" width="100" height="80" as="geometry" />
        </mxCell>
        <mxCell id="WIyWlLk6GJQsqaUBKTNV-11" value="Repair Lamp" style="rounded=1;whiteSpace=wrap;html=1;fontSize=12;glass=0;strokeWidth=1;shadow=0;" parent="WIyWlLk6GJQsqaUBKTNV-1" vertex="1">
          <mxGeometry x="160" y="430" width="120" height="40" as="geometry" />
        </mxCell>
        <mxCell id="WIyWlLk6GJQsqaUBKTNV-12" value="Replace Bulb" style="rounded=1;whiteSpace=wrap;html=1;fontSize=12;glass=0;strokeWidth=1;shadow=0;" parent="WIyWlLk6GJQsqaUBKTNV-1" vertex="1">
          <mxGeometry x="320" y="310" width="120" height="40" as="geometry" />
        </mxCell>
        <mxCell id="ywIWyBjBBA_NJopMtTMj-0" value="" style="html=1;overflow=block;blockSpacing=1;whiteSpace=wrap;fontSize=13;spacing=0;strokeColor=#6f7681;strokeOpacity=100;fillOpacity=0;fillColor=#ffffff;strokeWidth=0.8;container=1;pointerEvents=0;collapsible=0;recursiveResize=0;lucidId=N30nDekbUn9Q;" vertex="1" parent="WIyWlLk6GJQsqaUBKTNV-1">
          <mxGeometry x="1905" y="-372" width="985" height="150" as="geometry" />
        </mxCell>
        <mxCell id="ywIWyBjBBA_NJopMtTMj-2" value="" style="html=1;overflow=block;blockSpacing=1;whiteSpace=wrap;fontSize=13;spacing=9;strokeColor=#9673a6;strokeOpacity=100;fillOpacity=100;rounded=1;absoluteArcSize=1;arcSize=9;fillColor=#e1d5e7;strokeWidth=2.3;lucidId=J80nYq8lnvE4;" vertex="1" parent="ywIWyBjBBA_NJopMtTMj-0">
          <mxGeometry x="560" y="18" width="385" height="122" as="geometry" />
        </mxCell>
        <mxCell id="ywIWyBjBBA_NJopMtTMj-37" value="&lt;div&gt;Data to be transmitted&lt;/div&gt;" style="text;html=1;align=center;verticalAlign=middle;whiteSpace=wrap;rounded=0;" vertex="1" parent="ywIWyBjBBA_NJopMtTMj-0">
          <mxGeometry x="16.5" y="64" width="60" height="30" as="geometry" />
        </mxCell>
        <mxCell id="ywIWyBjBBA_NJopMtTMj-23" value="PlutoSDR" style="text;html=1;align=center;verticalAlign=middle;whiteSpace=wrap;rounded=0;" vertex="1" parent="ywIWyBjBBA_NJopMtTMj-0">
          <mxGeometry x="885" y="108" width="60" height="30" as="geometry" />
        </mxCell>
        <mxCell id="ywIWyBjBBA_NJopMtTMj-28" value="DAC" style="rounded=1;whiteSpace=wrap;html=1;" vertex="1" parent="ywIWyBjBBA_NJopMtTMj-0">
          <mxGeometry x="576" y="64" width="120" height="30" as="geometry" />
        </mxCell>
        <mxCell id="ywIWyBjBBA_NJopMtTMj-22" value="&lt;b&gt;&lt;font style=&quot;font-size: 18px;&quot;&gt;UE k&lt;/font&gt;&lt;/b&gt;" style="text;html=1;align=center;verticalAlign=middle;whiteSpace=wrap;rounded=0;" vertex="1" parent="WIyWlLk6GJQsqaUBKTNV-1">
          <mxGeometry x="1905" y="-402" width="60" height="30" as="geometry" />
        </mxCell>
        <mxCell id="ywIWyBjBBA_NJopMtTMj-35" value="" style="edgeStyle=orthogonalEdgeStyle;rounded=0;orthogonalLoop=1;jettySize=auto;html=1;" edge="1" parent="WIyWlLk6GJQsqaUBKTNV-1" source="ywIWyBjBBA_NJopMtTMj-25" target="ywIWyBjBBA_NJopMtTMj-26">
          <mxGeometry relative="1" as="geometry" />
        </mxCell>
        <mxCell id="ywIWyBjBBA_NJopMtTMj-25" value="QAM Modulation" style="rounded=1;whiteSpace=wrap;html=1;" vertex="1" parent="WIyWlLk6GJQsqaUBKTNV-1">
          <mxGeometry x="2030" y="-309" width="120" height="30" as="geometry" />
        </mxCell>
        <mxCell id="ywIWyBjBBA_NJopMtTMj-34" value="" style="edgeStyle=orthogonalEdgeStyle;rounded=0;orthogonalLoop=1;jettySize=auto;html=1;" edge="1" parent="WIyWlLk6GJQsqaUBKTNV-1" source="ywIWyBjBBA_NJopMtTMj-26" target="ywIWyBjBBA_NJopMtTMj-27">
          <mxGeometry relative="1" as="geometry" />
        </mxCell>
        <mxCell id="ywIWyBjBBA_NJopMtTMj-26" value="IFFT" style="rounded=1;whiteSpace=wrap;html=1;" vertex="1" parent="WIyWlLk6GJQsqaUBKTNV-1">
          <mxGeometry x="2180" y="-309" width="120" height="30" as="geometry" />
        </mxCell>
        <mxCell id="ywIWyBjBBA_NJopMtTMj-64" value="" style="edgeStyle=orthogonalEdgeStyle;rounded=0;orthogonalLoop=1;jettySize=auto;html=1;" edge="1" parent="WIyWlLk6GJQsqaUBKTNV-1" source="ywIWyBjBBA_NJopMtTMj-27" target="ywIWyBjBBA_NJopMtTMj-28">
          <mxGeometry relative="1" as="geometry" />
        </mxCell>
        <mxCell id="ywIWyBjBBA_NJopMtTMj-27" value="Cyclic prefix addition" style="rounded=1;whiteSpace=wrap;html=1;" vertex="1" parent="WIyWlLk6GJQsqaUBKTNV-1">
          <mxGeometry x="2330" y="-309" width="120" height="30" as="geometry" />
        </mxCell>
        <mxCell id="ywIWyBjBBA_NJopMtTMj-32" value="" style="edgeStyle=orthogonalEdgeStyle;rounded=0;orthogonalLoop=1;jettySize=auto;html=1;" edge="1" parent="WIyWlLk6GJQsqaUBKTNV-1" source="ywIWyBjBBA_NJopMtTMj-28" target="ywIWyBjBBA_NJopMtTMj-29">
          <mxGeometry relative="1" as="geometry" />
        </mxCell>
        <mxCell id="ywIWyBjBBA_NJopMtTMj-29" value="Upconversion" style="rounded=1;whiteSpace=wrap;html=1;" vertex="1" parent="WIyWlLk6GJQsqaUBKTNV-1">
          <mxGeometry x="2640" y="-308" width="120" height="29" as="geometry" />
        </mxCell>
        <mxCell id="ywIWyBjBBA_NJopMtTMj-38" value="" style="edgeStyle=orthogonalEdgeStyle;rounded=0;orthogonalLoop=1;jettySize=auto;html=1;" edge="1" parent="WIyWlLk6GJQsqaUBKTNV-1" source="ywIWyBjBBA_NJopMtTMj-37" target="ywIWyBjBBA_NJopMtTMj-25">
          <mxGeometry relative="1" as="geometry">
            <Array as="points">
              <mxPoint x="1990" y="-294" />
              <mxPoint x="1990" y="-294" />
            </Array>
          </mxGeometry>
        </mxCell>
        <mxCell id="ywIWyBjBBA_NJopMtTMj-39" value="" style="html=1;overflow=block;blockSpacing=1;whiteSpace=wrap;fontSize=13;spacing=0;strokeColor=#6f7681;strokeOpacity=100;fillOpacity=0;fillColor=#ffffff;strokeWidth=0.8;container=1;pointerEvents=0;collapsible=0;recursiveResize=0;lucidId=N30nDekbUn9Q;" vertex="1" parent="WIyWlLk6GJQsqaUBKTNV-1">
          <mxGeometry x="2440" y="-120" width="985" height="150" as="geometry" />
        </mxCell>
        <mxCell id="ywIWyBjBBA_NJopMtTMj-131" value="" style="html=1;overflow=block;blockSpacing=1;whiteSpace=wrap;fontSize=13;spacing=9;strokeColor=#10739e;strokeOpacity=100;fillOpacity=100;rounded=1;absoluteArcSize=1;arcSize=9;fillColor=#b1ddf0;strokeWidth=2.3;lucidId=J80nYq8lnvE4;" vertex="1" parent="ywIWyBjBBA_NJopMtTMj-39">
          <mxGeometry x="50" y="19" width="660" height="120" as="geometry" />
        </mxCell>
        <mxCell id="ywIWyBjBBA_NJopMtTMj-41" value="" style="html=1;overflow=block;blockSpacing=1;whiteSpace=wrap;fontSize=13;spacing=9;strokeColor=#9673a6;strokeOpacity=100;fillOpacity=100;rounded=1;absoluteArcSize=1;arcSize=9;fillColor=#e1d5e7;strokeWidth=2.3;lucidId=J80nYq8lnvE4;" vertex="1" parent="ywIWyBjBBA_NJopMtTMj-39">
          <mxGeometry x="720" y="18" width="225" height="120" as="geometry" />
        </mxCell>
        <mxCell id="ywIWyBjBBA_NJopMtTMj-43" value="PlutoSDR" style="text;html=1;align=center;verticalAlign=middle;whiteSpace=wrap;rounded=0;" vertex="1" parent="ywIWyBjBBA_NJopMtTMj-39">
          <mxGeometry x="885" y="108" width="60" height="30" as="geometry" />
        </mxCell>
        <mxCell id="ywIWyBjBBA_NJopMtTMj-44" value="Remove cyclic prefix" style="rounded=1;whiteSpace=wrap;html=1;" vertex="1" parent="ywIWyBjBBA_NJopMtTMj-39">
          <mxGeometry x="576" y="64" width="120" height="30" as="geometry" />
        </mxCell>
        <mxCell id="ywIWyBjBBA_NJopMtTMj-122" value="Data estimation" style="rounded=1;whiteSpace=wrap;html=1;" vertex="1" parent="ywIWyBjBBA_NJopMtTMj-39">
          <mxGeometry x="110" y="63" width="130" height="30" as="geometry" />
        </mxCell>
        <mxCell id="ywIWyBjBBA_NJopMtTMj-134" value="GNU Radio" style="text;html=1;align=center;verticalAlign=middle;whiteSpace=wrap;rounded=0;" vertex="1" parent="ywIWyBjBBA_NJopMtTMj-39">
          <mxGeometry x="610" y="108" width="110" height="30" as="geometry" />
        </mxCell>
        <mxCell id="ywIWyBjBBA_NJopMtTMj-45" value="&lt;font style=&quot;font-size: 18px;&quot;&gt;&lt;b&gt;AP l&lt;/b&gt;&lt;/font&gt;" style="text;html=1;align=center;verticalAlign=middle;whiteSpace=wrap;rounded=0;" vertex="1" parent="WIyWlLk6GJQsqaUBKTNV-1">
          <mxGeometry x="2440" y="-150" width="60" height="30" as="geometry" />
        </mxCell>
        <mxCell id="ywIWyBjBBA_NJopMtTMj-48" value="" style="edgeStyle=orthogonalEdgeStyle;rounded=0;orthogonalLoop=1;jettySize=auto;html=1;" edge="1" parent="WIyWlLk6GJQsqaUBKTNV-1" source="ywIWyBjBBA_NJopMtTMj-51" target="ywIWyBjBBA_NJopMtTMj-49">
          <mxGeometry relative="1" as="geometry" />
        </mxCell>
        <mxCell id="ywIWyBjBBA_NJopMtTMj-123" value="" style="edgeStyle=orthogonalEdgeStyle;rounded=0;orthogonalLoop=1;jettySize=auto;html=1;" edge="1" parent="WIyWlLk6GJQsqaUBKTNV-1" source="ywIWyBjBBA_NJopMtTMj-49" target="ywIWyBjBBA_NJopMtTMj-122">
          <mxGeometry relative="1" as="geometry" />
        </mxCell>
        <mxCell id="ywIWyBjBBA_NJopMtTMj-49" value="Channel estimation" style="rounded=1;whiteSpace=wrap;html=1;" vertex="1" parent="WIyWlLk6GJQsqaUBKTNV-1">
          <mxGeometry x="2730" y="-57" width="105" height="30" as="geometry" />
        </mxCell>
        <mxCell id="ywIWyBjBBA_NJopMtTMj-51" value="FFT" style="rounded=1;whiteSpace=wrap;html=1;" vertex="1" parent="WIyWlLk6GJQsqaUBKTNV-1">
          <mxGeometry x="2865" y="-57" width="120" height="30" as="geometry" />
        </mxCell>
        <mxCell id="ywIWyBjBBA_NJopMtTMj-52" value="" style="edgeStyle=orthogonalEdgeStyle;rounded=0;orthogonalLoop=1;jettySize=auto;html=1;" edge="1" parent="WIyWlLk6GJQsqaUBKTNV-1" source="ywIWyBjBBA_NJopMtTMj-53" target="ywIWyBjBBA_NJopMtTMj-44">
          <mxGeometry relative="1" as="geometry" />
        </mxCell>
        <mxCell id="ywIWyBjBBA_NJopMtTMj-53" value="ADC + synchronization" style="rounded=1;whiteSpace=wrap;html=1;" vertex="1" parent="WIyWlLk6GJQsqaUBKTNV-1">
          <mxGeometry x="3170" y="-56" width="125" height="29" as="geometry" />
        </mxCell>
        <mxCell id="ywIWyBjBBA_NJopMtTMj-55" value="&lt;font color=&quot;#ed333b&quot;&gt;Air&lt;/font&gt;" style="text;html=1;align=center;verticalAlign=middle;whiteSpace=wrap;rounded=0;" vertex="1" parent="WIyWlLk6GJQsqaUBKTNV-1">
          <mxGeometry x="2895" y="-320" width="60" height="30" as="geometry" />
        </mxCell>
        <mxCell id="ywIWyBjBBA_NJopMtTMj-56" value="RF signal" style="text;html=1;align=center;verticalAlign=middle;whiteSpace=wrap;rounded=0;" vertex="1" parent="WIyWlLk6GJQsqaUBKTNV-1">
          <mxGeometry x="2955" y="-320" width="60" height="30" as="geometry" />
        </mxCell>
        <mxCell id="ywIWyBjBBA_NJopMtTMj-60" style="edgeStyle=orthogonalEdgeStyle;rounded=0;orthogonalLoop=1;jettySize=auto;html=1;entryX=1;entryY=0.5;entryDx=0;entryDy=0;" edge="1" parent="WIyWlLk6GJQsqaUBKTNV-1" source="ywIWyBjBBA_NJopMtTMj-29" target="ywIWyBjBBA_NJopMtTMj-53">
          <mxGeometry relative="1" as="geometry" />
        </mxCell>
        <mxCell id="ywIWyBjBBA_NJopMtTMj-65" value="" style="edgeStyle=orthogonalEdgeStyle;rounded=0;orthogonalLoop=1;jettySize=auto;html=1;" edge="1" parent="WIyWlLk6GJQsqaUBKTNV-1" source="ywIWyBjBBA_NJopMtTMj-44" target="ywIWyBjBBA_NJopMtTMj-51">
          <mxGeometry relative="1" as="geometry" />
        </mxCell>
        <mxCell id="ywIWyBjBBA_NJopMtTMj-83" value="" style="rounded=0;whiteSpace=wrap;html=1;fillColor=none;" vertex="1" parent="WIyWlLk6GJQsqaUBKTNV-1">
          <mxGeometry x="3490" y="-267" width="242" height="347" as="geometry" />
        </mxCell>
        <mxCell id="ywIWyBjBBA_NJopMtTMj-84" value="&lt;font style=&quot;font-size: 12px;&quot;&gt;PlutoSDR&lt;/font&gt;" style="html=1;overflow=block;blockSpacing=1;whiteSpace=wrap;fontSize=16.7;spacing=9;strokeColor=#9673a6;strokeOpacity=100;fillOpacity=100;rounded=1;absoluteArcSize=1;arcSize=9;fillColor=#e1d5e7;strokeWidth=2.3;lucidId=gF1nI-Jwwumz;" vertex="1" parent="WIyWlLk6GJQsqaUBKTNV-1">
          <mxGeometry x="3555" y="-135" width="125" height="38" as="geometry" />
        </mxCell>
        <mxCell id="ywIWyBjBBA_NJopMtTMj-85" value="" style="html=1;overflow=block;blockSpacing=1;whiteSpace=wrap;fontSize=13;align=left;spacing=9;strokeColor=#5e5e5e;strokeOpacity=100;fillOpacity=100;rounded=1;absoluteArcSize=1;arcSize=9;fillColor=#fff1aa;strokeWidth=2.3;lucidId=gF1nV02LV_8w;" vertex="1" parent="WIyWlLk6GJQsqaUBKTNV-1">
          <mxGeometry x="3561.5" y="20" width="112" height="40" as="geometry" />
        </mxCell>
        <mxCell id="ywIWyBjBBA_NJopMtTMj-86" value="&lt;font color=&quot;#ff0000&quot;&gt;Red text&lt;/font&gt;" style="text;html=1;align=center;verticalAlign=middle;whiteSpace=wrap;rounded=0;" vertex="1" parent="WIyWlLk6GJQsqaUBKTNV-1">
          <mxGeometry x="3585" y="-250" width="60" height="30" as="geometry" />
        </mxCell>
        <mxCell id="ywIWyBjBBA_NJopMtTMj-87" value="Black text" style="text;html=1;align=center;verticalAlign=middle;whiteSpace=wrap;rounded=0;" vertex="1" parent="WIyWlLk6GJQsqaUBKTNV-1">
          <mxGeometry x="3585" y="-200" width="60" height="30" as="geometry" />
        </mxCell>
        <mxCell id="ywIWyBjBBA_NJopMtTMj-88" value="&lt;font size=&quot;1&quot;&gt;&lt;b style=&quot;font-size: 15px;&quot;&gt;Symbol&lt;/b&gt;&lt;/font&gt;" style="text;html=1;align=center;verticalAlign=middle;whiteSpace=wrap;rounded=0;" vertex="1" parent="WIyWlLk6GJQsqaUBKTNV-1">
          <mxGeometry x="3490" y="-293.5" width="60" height="30" as="geometry" />
        </mxCell>
        <mxCell id="ywIWyBjBBA_NJopMtTMj-124" value="" style="edgeStyle=orthogonalEdgeStyle;rounded=0;orthogonalLoop=1;jettySize=auto;html=1;" edge="1" parent="WIyWlLk6GJQsqaUBKTNV-1" source="ywIWyBjBBA_NJopMtTMj-90" target="ywIWyBjBBA_NJopMtTMj-122">
          <mxGeometry relative="1" as="geometry" />
        </mxCell>
        <mxCell id="ywIWyBjBBA_NJopMtTMj-90" value="&lt;div align=&quot;center&quot;&gt;OSLP (Optimal Sequential Linear Processing)&lt;/div&gt;" style="html=1;overflow=block;blockSpacing=1;whiteSpace=wrap;fontSize=13;align=center;spacing=9;strokeColor=#5e5e5e;strokeOpacity=100;fillOpacity=100;rounded=1;absoluteArcSize=1;arcSize=9;fillColor=#fff1aa;strokeWidth=2.3;lucidId=gF1nV02LV_8w;" vertex="1" parent="WIyWlLk6GJQsqaUBKTNV-1">
          <mxGeometry x="2540.75" y="60" width="148.5" height="60" as="geometry" />
        </mxCell>
        <mxCell id="ywIWyBjBBA_NJopMtTMj-92" value="" style="html=1;overflow=block;blockSpacing=1;whiteSpace=wrap;fontSize=13;spacing=0;strokeColor=#6f7681;strokeOpacity=100;fillOpacity=0;fillColor=#ffffff;strokeWidth=0.8;container=1;pointerEvents=0;collapsible=0;recursiveResize=0;lucidId=N30nDekbUn9Q;" vertex="1" parent="WIyWlLk6GJQsqaUBKTNV-1">
          <mxGeometry x="1400" y="-120" width="985" height="150" as="geometry" />
        </mxCell>
        <mxCell id="ywIWyBjBBA_NJopMtTMj-127" value="" style="html=1;overflow=block;blockSpacing=1;whiteSpace=wrap;fontSize=13;spacing=9;strokeColor=#10739e;strokeOpacity=100;fillOpacity=100;rounded=1;absoluteArcSize=1;arcSize=9;fillColor=#b1ddf0;strokeWidth=2.3;lucidId=J80nYq8lnvE4;" vertex="1" parent="ywIWyBjBBA_NJopMtTMj-92">
          <mxGeometry x="90" y="19" width="616" height="120" as="geometry" />
        </mxCell>
        <mxCell id="ywIWyBjBBA_NJopMtTMj-93" value="" style="html=1;overflow=block;blockSpacing=1;whiteSpace=wrap;fontSize=13;spacing=9;strokeColor=#9673a6;strokeOpacity=100;fillOpacity=100;rounded=1;absoluteArcSize=1;arcSize=9;fillColor=#e1d5e7;strokeWidth=2.3;lucidId=J80nYq8lnvE4;" vertex="1" parent="ywIWyBjBBA_NJopMtTMj-92">
          <mxGeometry x="720" y="18" width="225" height="120" as="geometry" />
        </mxCell>
        <mxCell id="ywIWyBjBBA_NJopMtTMj-94" value="PlutoSDR" style="text;html=1;align=center;verticalAlign=middle;whiteSpace=wrap;rounded=0;" vertex="1" parent="ywIWyBjBBA_NJopMtTMj-92">
          <mxGeometry x="885" y="108" width="60" height="30" as="geometry" />
        </mxCell>
        <mxCell id="ywIWyBjBBA_NJopMtTMj-95" value="Remove cyclic prefix" style="rounded=1;whiteSpace=wrap;html=1;" vertex="1" parent="ywIWyBjBBA_NJopMtTMj-92">
          <mxGeometry x="576" y="64" width="120" height="30" as="geometry" />
        </mxCell>
        <mxCell id="ywIWyBjBBA_NJopMtTMj-118" value="Data estimation" style="rounded=1;whiteSpace=wrap;html=1;" vertex="1" parent="ywIWyBjBBA_NJopMtTMj-92">
          <mxGeometry x="110" y="64" width="130" height="30" as="geometry" />
        </mxCell>
        <mxCell id="ywIWyBjBBA_NJopMtTMj-132" value="GNU Radio" style="text;html=1;align=center;verticalAlign=middle;whiteSpace=wrap;rounded=0;" vertex="1" parent="ywIWyBjBBA_NJopMtTMj-92">
          <mxGeometry x="613" y="109" width="110" height="30" as="geometry" />
        </mxCell>
        <mxCell id="ywIWyBjBBA_NJopMtTMj-101" value="ADC + synchronization" style="rounded=1;whiteSpace=wrap;html=1;" vertex="1" parent="ywIWyBjBBA_NJopMtTMj-92">
          <mxGeometry x="760" y="65" width="125" height="29" as="geometry" />
        </mxCell>
        <mxCell id="ywIWyBjBBA_NJopMtTMj-100" value="" style="edgeStyle=orthogonalEdgeStyle;rounded=0;orthogonalLoop=1;jettySize=auto;html=1;" edge="1" parent="ywIWyBjBBA_NJopMtTMj-92" source="ywIWyBjBBA_NJopMtTMj-101" target="ywIWyBjBBA_NJopMtTMj-95">
          <mxGeometry relative="1" as="geometry" />
        </mxCell>
        <mxCell id="ywIWyBjBBA_NJopMtTMj-96" value="&lt;font style=&quot;font-size: 18px;&quot;&gt;&lt;b&gt;AP l+1&lt;br&gt;&lt;/b&gt;&lt;/font&gt;" style="text;html=1;align=center;verticalAlign=middle;whiteSpace=wrap;rounded=0;" vertex="1" parent="WIyWlLk6GJQsqaUBKTNV-1">
          <mxGeometry x="1400" y="-150" width="60" height="30" as="geometry" />
        </mxCell>
        <mxCell id="ywIWyBjBBA_NJopMtTMj-97" value="" style="edgeStyle=orthogonalEdgeStyle;rounded=0;orthogonalLoop=1;jettySize=auto;html=1;" edge="1" parent="WIyWlLk6GJQsqaUBKTNV-1" source="ywIWyBjBBA_NJopMtTMj-99" target="ywIWyBjBBA_NJopMtTMj-98">
          <mxGeometry relative="1" as="geometry" />
        </mxCell>
        <mxCell id="ywIWyBjBBA_NJopMtTMj-119" value="" style="edgeStyle=orthogonalEdgeStyle;rounded=0;orthogonalLoop=1;jettySize=auto;html=1;" edge="1" parent="WIyWlLk6GJQsqaUBKTNV-1" source="ywIWyBjBBA_NJopMtTMj-98" target="ywIWyBjBBA_NJopMtTMj-118">
          <mxGeometry relative="1" as="geometry" />
        </mxCell>
        <mxCell id="ywIWyBjBBA_NJopMtTMj-98" value="Channel estimation" style="rounded=1;whiteSpace=wrap;html=1;" vertex="1" parent="WIyWlLk6GJQsqaUBKTNV-1">
          <mxGeometry x="1670" y="-57" width="125" height="30" as="geometry" />
        </mxCell>
        <mxCell id="ywIWyBjBBA_NJopMtTMj-99" value="FFT" style="rounded=1;whiteSpace=wrap;html=1;" vertex="1" parent="WIyWlLk6GJQsqaUBKTNV-1">
          <mxGeometry x="1825" y="-57" width="120" height="30" as="geometry" />
        </mxCell>
        <mxCell id="ywIWyBjBBA_NJopMtTMj-120" style="edgeStyle=orthogonalEdgeStyle;rounded=0;orthogonalLoop=1;jettySize=auto;html=1;" edge="1" parent="WIyWlLk6GJQsqaUBKTNV-1" source="ywIWyBjBBA_NJopMtTMj-103" target="ywIWyBjBBA_NJopMtTMj-118">
          <mxGeometry relative="1" as="geometry" />
        </mxCell>
        <mxCell id="ywIWyBjBBA_NJopMtTMj-103" value="&lt;div align=&quot;center&quot;&gt;OSLP (Optimal Sequential Linear Processing)&lt;/div&gt;" style="html=1;overflow=block;blockSpacing=1;whiteSpace=wrap;fontSize=13;align=center;spacing=9;strokeColor=#5e5e5e;strokeOpacity=100;fillOpacity=100;rounded=1;absoluteArcSize=1;arcSize=9;fillColor=#fff1aa;strokeWidth=2.3;lucidId=gF1nV02LV_8w;" vertex="1" parent="WIyWlLk6GJQsqaUBKTNV-1">
          <mxGeometry x="1500.75" y="50" width="148.5" height="60" as="geometry" />
        </mxCell>
        <mxCell id="ywIWyBjBBA_NJopMtTMj-106" value="&lt;font color=&quot;#ed333b&quot;&gt;Air&lt;/font&gt;" style="text;html=1;align=center;verticalAlign=middle;whiteSpace=wrap;rounded=0;" vertex="1" parent="WIyWlLk6GJQsqaUBKTNV-1">
          <mxGeometry x="2410" y="-222" width="60" height="30" as="geometry" />
        </mxCell>
        <mxCell id="ywIWyBjBBA_NJopMtTMj-107" value="RF signal" style="text;html=1;align=center;verticalAlign=middle;whiteSpace=wrap;rounded=0;" vertex="1" parent="WIyWlLk6GJQsqaUBKTNV-1">
          <mxGeometry x="2450" y="-222" width="60" height="30" as="geometry" />
        </mxCell>
        <mxCell id="ywIWyBjBBA_NJopMtTMj-111" style="edgeStyle=orthogonalEdgeStyle;rounded=0;orthogonalLoop=1;jettySize=auto;html=1;entryX=1;entryY=0.5;entryDx=0;entryDy=0;" edge="1" parent="WIyWlLk6GJQsqaUBKTNV-1" source="ywIWyBjBBA_NJopMtTMj-29" target="ywIWyBjBBA_NJopMtTMj-101">
          <mxGeometry relative="1" as="geometry">
            <Array as="points">
              <mxPoint x="2700" y="-200" />
              <mxPoint x="2350" y="-200" />
              <mxPoint x="2350" y="-41" />
            </Array>
          </mxGeometry>
        </mxCell>
        <mxCell id="ywIWyBjBBA_NJopMtTMj-116" value="&lt;font color=&quot;#ed333b&quot;&gt;Serial connection&lt;br&gt;&lt;/font&gt;" style="text;html=1;align=center;verticalAlign=middle;whiteSpace=wrap;rounded=0;" vertex="1" parent="WIyWlLk6GJQsqaUBKTNV-1">
          <mxGeometry x="1842.5" y="40" width="100" height="30" as="geometry" />
        </mxCell>
        <mxCell id="ywIWyBjBBA_NJopMtTMj-117" value="Signal estimate AP l, side matrix P" style="text;html=1;align=center;verticalAlign=middle;whiteSpace=wrap;rounded=0;" vertex="1" parent="WIyWlLk6GJQsqaUBKTNV-1">
          <mxGeometry x="1950" y="40" width="210" height="30" as="geometry" />
        </mxCell>
        <mxCell id="ywIWyBjBBA_NJopMtTMj-129" value="" style="edgeStyle=orthogonalEdgeStyle;rounded=0;orthogonalLoop=1;jettySize=auto;html=1;" edge="1" parent="WIyWlLk6GJQsqaUBKTNV-1" source="ywIWyBjBBA_NJopMtTMj-95" target="ywIWyBjBBA_NJopMtTMj-99">
          <mxGeometry relative="1" as="geometry" />
        </mxCell>
        <mxCell id="ywIWyBjBBA_NJopMtTMj-133" value="GNU Radio" style="text;html=1;align=center;verticalAlign=middle;whiteSpace=wrap;rounded=0;" vertex="1" parent="WIyWlLk6GJQsqaUBKTNV-1">
          <mxGeometry x="2360" y="-263.5" width="110" height="30" as="geometry" />
        </mxCell>
        <mxCell id="ywIWyBjBBA_NJopMtTMj-135" style="edgeStyle=orthogonalEdgeStyle;rounded=0;orthogonalLoop=1;jettySize=auto;html=1;entryX=0.692;entryY=1;entryDx=0;entryDy=0;entryPerimeter=0;" edge="1" parent="WIyWlLk6GJQsqaUBKTNV-1" source="ywIWyBjBBA_NJopMtTMj-122" target="ywIWyBjBBA_NJopMtTMj-118">
          <mxGeometry relative="1" as="geometry">
            <Array as="points">
              <mxPoint x="2600" y="40" />
              <mxPoint x="1600" y="40" />
            </Array>
          </mxGeometry>
        </mxCell>
        <mxCell id="ywIWyBjBBA_NJopMtTMj-137" value="Medium / connection" style="text;html=1;align=center;verticalAlign=middle;whiteSpace=wrap;rounded=0;" vertex="1" parent="WIyWlLk6GJQsqaUBKTNV-1">
          <mxGeometry x="3750" y="-252" width="140" height="30" as="geometry" />
        </mxCell>
        <mxCell id="ywIWyBjBBA_NJopMtTMj-138" value="What is being transferred" style="text;html=1;align=center;verticalAlign=middle;whiteSpace=wrap;rounded=0;" vertex="1" parent="WIyWlLk6GJQsqaUBKTNV-1">
          <mxGeometry x="3760" y="-200" width="140" height="30" as="geometry" />
        </mxCell>
        <mxCell id="ywIWyBjBBA_NJopMtTMj-139" value="&lt;font style=&quot;font-size: 12px;&quot;&gt;Hardware, PlutoSDR&lt;/font&gt;" style="html=1;overflow=block;blockSpacing=1;whiteSpace=wrap;fontSize=16.7;fontColor=#333333;spacing=9;strokeOpacity=0;fillOpacity=0;rounded=1;absoluteArcSize=1;arcSize=9;fillColor=#000000;strokeWidth=2.3;lucidId=gF1ngEjmAMdY;" vertex="1" parent="WIyWlLk6GJQsqaUBKTNV-1">
          <mxGeometry x="3732" y="-131" width="177.5" height="30" as="geometry" />
        </mxCell>
        <mxCell id="ywIWyBjBBA_NJopMtTMj-140" value="&lt;font style=&quot;font-size: 12px;&quot;&gt;Algorithm/software&lt;/font&gt;" style="html=1;overflow=block;blockSpacing=1;whiteSpace=wrap;fontSize=16.7;fontColor=#333333;spacing=9;strokeOpacity=0;fillOpacity=0;rounded=1;absoluteArcSize=1;arcSize=9;fillColor=#000000;strokeWidth=2.3;lucidId=gF1ngEjmAMdY;" vertex="1" parent="WIyWlLk6GJQsqaUBKTNV-1">
          <mxGeometry x="3736" y="23.5" width="168" height="26.5" as="geometry" />
        </mxCell>
        <mxCell id="ywIWyBjBBA_NJopMtTMj-141" value="&lt;font size=&quot;1&quot;&gt;&lt;b style=&quot;font-size: 15px;&quot;&gt;Meaning&lt;/b&gt;&lt;/font&gt;" style="text;html=1;align=center;verticalAlign=middle;whiteSpace=wrap;rounded=0;" vertex="1" parent="WIyWlLk6GJQsqaUBKTNV-1">
          <mxGeometry x="3732" y="-290" width="60" height="30" as="geometry" />
        </mxCell>
        <mxCell id="ywIWyBjBBA_NJopMtTMj-142" value="" style="rounded=0;whiteSpace=wrap;html=1;fillColor=none;" vertex="1" parent="WIyWlLk6GJQsqaUBKTNV-1">
          <mxGeometry x="3731.25" y="-267" width="242" height="347" as="geometry" />
        </mxCell>
        <mxCell id="ywIWyBjBBA_NJopMtTMj-143" value="" style="html=1;overflow=block;blockSpacing=1;whiteSpace=wrap;fontSize=13;spacing=9;strokeColor=#10739e;strokeOpacity=100;fillOpacity=100;rounded=1;absoluteArcSize=1;arcSize=9;fillColor=#b1ddf0;strokeWidth=2.3;lucidId=J80nYq8lnvE4;" vertex="1" parent="WIyWlLk6GJQsqaUBKTNV-1">
          <mxGeometry x="3555" y="-56" width="125" height="40" as="geometry" />
        </mxCell>
        <mxCell id="ywIWyBjBBA_NJopMtTMj-144" value="GNU Radio" style="text;html=1;align=center;verticalAlign=middle;whiteSpace=wrap;rounded=0;" vertex="1" parent="WIyWlLk6GJQsqaUBKTNV-1">
          <mxGeometry x="3563.5" y="-51" width="110" height="30" as="geometry" />
        </mxCell>
        <mxCell id="ywIWyBjBBA_NJopMtTMj-145" value="&lt;font style=&quot;font-size: 12px;&quot;&gt;GNU Radio on Linux&lt;br&gt;&lt;/font&gt;" style="html=1;overflow=block;blockSpacing=1;whiteSpace=wrap;fontSize=16.7;fontColor=#333333;spacing=9;strokeOpacity=0;fillOpacity=0;rounded=1;absoluteArcSize=1;arcSize=9;fillColor=#000000;strokeWidth=2.3;lucidId=gF1ngEjmAMdY;" vertex="1" parent="WIyWlLk6GJQsqaUBKTNV-1">
          <mxGeometry x="3731.25" y="-56" width="177.5" height="30" as="geometry" />
        </mxCell>
      </root>
    </mxGraphModel>
  </diagram>
</mxfile>
